<svg
   height="96"
   width="96"
   viewBox="0 0 18 18"
   xmlns="http://www.w3.org/2000/svg">
   <path
      d="m 15.0729,6.4641 a 3.61,3.61 0 0 0 -1.7248,3.0365 3.5132,3.5132 0 0 0 2.1379,3.2223 8.394,8.394 0 0 1 -1.0948,2.2618 c -0.6816,0.9812 -1.3943,1.9623 -2.4787,1.9623 -1.0844,0 -1.3633,-0.63 -2.613,-0.63 -1.2187,0 -1.6525,0.6507 -2.644,0.6507 -0.9915,0 -1.6834,-0.9089 -2.4787,-2.0243 A 9.7842,9.7842 0 0 1 2.514,9.6658 c 0,-3.0984 2.014,-4.7405 3.9969,-4.7405 1.0535,0 1.9314,0.6919 2.5924,0.6919 0.63,0 1.6112,-0.7333 2.8092,-0.7333 a 3.7579,3.7579 0 0 1 3.1604,1.5802 z M 11.3445,3.5723 a 3.5615,3.5615 0 0 0 0.8469,-2.22 1.5353,1.5353 0 0 0 -0.031,-0.32 A 3.5686,3.5686 0 0 0 9.8159,2.2407 3.4629,3.4629 0 0 0 8.938,4.3992 1.419,1.419 0 0 0 8.969,4.6884 1.19,1.19 0 0 0 9.1859,4.7091 3.0935,3.0935 0 0 0 11.3445,3.5723 Z"
      fill="black" />
</svg>