<svg width="13" height="13" viewBox="0 0 13 13" fill="none" xmlns="http://www.w3.org/2000/svg">
<path d="M3.18408 6.19629C1.4043 6.19629 0.000244141 4.95044 0.000244141 3.09814C0.000244141 1.24585 1.4043 0 3.18408 0H9.53857C11.3184 0 12.7224 1.24585 12.7224 3.09814C12.7224 4.95044 11.3184 6.19629 9.53857 6.19629H3.18408ZM3.18408 5.00977H9.53857C10.6064 5.00977 11.5359 4.23193 11.5359 3.09814C11.5359 1.96436 10.6064 1.18652 9.53857 1.18652H3.18408C2.10962 1.18652 1.18677 1.96436 1.18677 3.09814C1.18677 4.23193 2.10962 5.00977 3.18408 5.00977ZM3.18408 4.57471C2.36011 4.56812 1.70752 3.91553 1.70752 3.09155C1.70752 2.27417 2.36011 1.61499 3.18408 1.61499C4.00806 1.61499 4.67383 2.26758 4.66724 3.08496C4.66724 3.90894 4.00806 4.5813 3.18408 4.57471ZM2.91382 12.8145C1.29224 12.8145 0.000244141 11.6741 0.000244141 10.0129C0.000244141 8.35181 1.29224 7.20483 2.91382 7.20483H9.80884C11.4304 7.20483 12.7224 8.35181 12.7224 10.0129C12.7224 11.6741 11.4304 12.8145 9.80884 12.8145H2.91382ZM9.97363 11.6411C10.8767 11.6477 11.6018 10.9094 11.6084 9.99316C11.615 9.10327 10.8833 8.37817 9.97363 8.37817C9.07056 8.37817 8.34546 9.10327 8.34546 10.0063C8.34546 10.9094 9.07056 11.6345 9.97363 11.6411Z" fill="#A6A6A6" fill-opacity="0.85"/>
<path d="M3.18408 6.19629C1.4043 6.19629 0.000244141 4.95044 0.000244141 3.09814C0.000244141 1.24585 1.4043 0 3.18408 0H9.53857C11.3184 0 12.7224 1.24585 12.7224 3.09814C12.7224 4.95044 11.3184 6.19629 9.53857 6.19629H3.18408ZM3.18408 5.00977H9.53857C10.6064 5.00977 11.5359 4.23193 11.5359 3.09814C11.5359 1.96436 10.6064 1.18652 9.53857 1.18652H3.18408C2.10962 1.18652 1.18677 1.96436 1.18677 3.09814C1.18677 4.23193 2.10962 5.00977 3.18408 5.00977ZM3.18408 4.57471C2.36011 4.56812 1.70752 3.91553 1.70752 3.09155C1.70752 2.27417 2.36011 1.61499 3.18408 1.61499C4.00806 1.61499 4.67383 2.26758 4.66724 3.08496C4.66724 3.90894 4.00806 4.5813 3.18408 4.57471ZM2.91382 12.8145C1.29224 12.8145 0.000244141 11.6741 0.000244141 10.0129C0.000244141 8.35181 1.29224 7.20483 2.91382 7.20483H9.80884C11.4304 7.20483 12.7224 8.35181 12.7224 10.0129C12.7224 11.6741 11.4304 12.8145 9.80884 12.8145H2.91382ZM9.97363 11.6411C10.8767 11.6477 11.6018 10.9094 11.6084 9.99316C11.615 9.10327 10.8833 8.37817 9.97363 8.37817C9.07056 8.37817 8.34546 9.10327 8.34546 10.0063C8.34546 10.9094 9.07056 11.6345 9.97363 11.6411Z" fill="white" style="mix-blend-mode:plus-darker"/>
</svg>
