<svg width="14" height="14" viewBox="0 0 14 14" fill="none" xmlns="http://www.w3.org/2000/svg">
<path d="M6.80957 13.6187C3.05225 13.6187 0.000244141 10.5667 0.000244141 6.80933C0.000244141 3.052 3.05225 0 6.80957 0C10.5669 0 13.6189 3.052 13.6189 6.80933C13.6189 10.5667 10.5669 13.6187 6.80957 13.6187ZM6.80957 9.0835C8.68823 9.0835 10.1318 9.74927 10.8306 10.5205C11.7271 9.54492 12.2808 8.23975 12.2808 6.80933C12.2808 3.78369 9.83521 1.33813 6.80957 1.33813C3.78394 1.33813 1.33838 3.78369 1.33838 6.80933C1.33838 8.23975 1.89209 9.54492 2.78857 10.5205C3.4873 9.74927 4.9375 9.0835 6.80957 9.0835ZM6.80957 8.00244C5.53735 7.98926 4.54858 6.92139 4.54199 5.50415C4.5354 4.17261 5.54395 3.06519 6.80957 3.06519C8.08179 3.06519 9.07715 4.17261 9.07715 5.50415C9.07715 6.92139 8.08838 8.00903 6.80957 8.00244Z" fill="#A6A6A6" fill-opacity="0.85"/>
<path d="M6.80957 13.6187C3.05225 13.6187 0.000244141 10.5667 0.000244141 6.80933C0.000244141 3.052 3.05225 0 6.80957 0C10.5669 0 13.6189 3.052 13.6189 6.80933C13.6189 10.5667 10.5669 13.6187 6.80957 13.6187ZM6.80957 9.0835C8.68823 9.0835 10.1318 9.74927 10.8306 10.5205C11.7271 9.54492 12.2808 8.23975 12.2808 6.80933C12.2808 3.78369 9.83521 1.33813 6.80957 1.33813C3.78394 1.33813 1.33838 3.78369 1.33838 6.80933C1.33838 8.23975 1.89209 9.54492 2.78857 10.5205C3.4873 9.74927 4.9375 9.0835 6.80957 9.0835ZM6.80957 8.00244C5.53735 7.98926 4.54858 6.92139 4.54199 5.50415C4.5354 4.17261 5.54395 3.06519 6.80957 3.06519C8.08179 3.06519 9.07715 4.17261 9.07715 5.50415C9.07715 6.92139 8.08838 8.00903 6.80957 8.00244Z" fill="white" style="mix-blend-mode:plus-darker"/>
</svg>
