<svg width="9" height="8" viewBox="0 0 9 8" fill="none" xmlns="http://www.w3.org/2000/svg">
<path d="M3.16406 7.82227C2.8916 7.82227 2.66455 7.71387 2.48291 7.49707L0.215332 4.75049C0.13623 4.65967 0.0805664 4.57178 0.0483398 4.48682C0.0161133 4.40186 0 4.31396 0 4.22314C0 4.01514 0.0688477 3.84375 0.206543 3.70898C0.347168 3.57129 0.522949 3.50244 0.733887 3.50244C0.968262 3.50244 1.16309 3.59766 1.31836 3.78809L3.14648 6.05127L6.73682 0.37793C6.82764 0.240234 6.92139 0.143555 7.01807 0.0878906C7.11768 0.0292969 7.23926 0 7.38281 0C7.59375 0 7.76807 0.0673828 7.90576 0.202148C8.04346 0.336914 8.1123 0.506836 8.1123 0.711914C8.1123 0.788086 8.09912 0.867187 8.07275 0.949219C8.04639 1.03125 8.00537 1.11621 7.94971 1.2041L3.8584 7.46631C3.69727 7.70361 3.46582 7.82227 3.16406 7.82227Z" fill="white"/>
</svg>
