<svg width="13" height="13" viewBox="0 0 13 13" fill="none" xmlns="http://www.w3.org/2000/svg">
<path d="M6.47461 12.9492C5.59017 12.9492 4.75651 12.7799 3.97363 12.4414C3.19499 12.1029 2.50732 11.6353 1.91064 11.0386C1.31396 10.4419 0.846354 9.75423 0.507812 8.97559C0.169271 8.19271 0 7.35905 0 6.47461C0 5.59017 0.169271 4.75863 0.507812 3.97998C0.846354 3.1971 1.31185 2.50732 1.9043 1.91064C2.50098 1.31396 3.18864 0.846354 3.96729 0.507812C4.75016 0.169271 5.58382 0 6.46826 0C7.3527 0 8.18636 0.169271 8.96924 0.507812C9.75212 0.846354 10.4419 1.31396 11.0386 1.91064C11.6353 2.50732 12.1029 3.1971 12.4414 3.97998C12.7799 4.75863 12.9492 5.59017 12.9492 6.47461C12.9492 7.35905 12.7799 8.19271 12.4414 8.97559C12.1029 9.75423 11.6353 10.4419 11.0386 11.0386C10.4419 11.6353 9.75212 12.1029 8.96924 12.4414C8.19059 12.7799 7.35905 12.9492 6.47461 12.9492ZM4.3418 9.14062C4.49414 9.14062 4.62321 9.08984 4.729 8.98828L6.48096 7.22363L8.23926 8.98828C8.33659 9.08984 8.46143 9.14062 8.61377 9.14062C8.76188 9.14062 8.88672 9.08984 8.98828 8.98828C9.08984 8.88249 9.14062 8.75765 9.14062 8.61377C9.14062 8.45719 9.08984 8.33236 8.98828 8.23926L7.22363 6.48096L8.99463 4.71631C9.09619 4.61051 9.14697 4.48568 9.14697 4.3418C9.14697 4.19792 9.09619 4.0752 8.99463 3.97363C8.89307 3.87207 8.77035 3.82129 8.62646 3.82129C8.48682 3.82129 8.36621 3.87207 8.26465 3.97363L6.48096 5.74463L4.70996 3.97998C4.60417 3.88265 4.48145 3.83398 4.3418 3.83398C4.19792 3.83398 4.0752 3.88477 3.97363 3.98633C3.87207 4.08366 3.82129 4.20638 3.82129 4.35449C3.82129 4.49414 3.87207 4.61686 3.97363 4.72266L5.73828 6.48096L3.97363 8.24561C3.87207 8.34717 3.82129 8.46989 3.82129 8.61377C3.82129 8.75765 3.87207 8.88249 3.97363 8.98828C4.0752 9.08984 4.19792 9.14062 4.3418 9.14062Z" fill="#808080"/>
</svg>
